<svg xmlns="http://www.w3.org/2000/svg" aria-hidden="true" focusable="false" data-prefix="fas" data-icon="plus" role="img" width="448" height="448" style=""><rect id="backgroundrect" width="100%" height="100%" x="0" y="0" fill="none" stroke="none" class="" style=""/><g class="currentLayer" style=""><title>Layer 1</title><path fill="#009900" d="M416,176 H272 V32 c0,-17.67 -14.33,-32 -32,-32 h-32 c-17.67,0 -32,14.33 -32,32 v144 H32 c-17.67,0 -32,14.33 -32,32 v32 c0,17.67 14.33,32 32,32 h144 v144 c0,17.67 14.33,32 32,32 h32 c17.67,0 32,-14.33 32,-32 V272 h144 c17.67,0 32,-14.33 32,-32 v-32 c0,-17.67 -14.33,-32 -32,-32 z" id="svg_1" class="selected" fill-opacity="1"/></g></svg>